<?xml version="1.0" encoding="UTF-8"?>
<svg id="Layer_2" data-name="Layer 2" xmlns="http://www.w3.org/2000/svg" viewBox="0 0 721.92 394.65">
  <defs>
    <style>
      .cls-1 {
        fill: #fff;
      }
    </style>
  </defs>
  <g id="Layer_1-2" data-name="Layer 1">
    <g>
      <path class="cls-1" d="m180.79,296.41c0,3.87-2.67,6.08-7.09,6.08h-3.06v-11.91h2.77c2.41,0,7.39.5,7.39,5.83Z"/>
      <path class="cls-1" d="m173.4,290.58h-2.77v11.91h3.06c4.43,0,7.09-2.21,7.09-6.08,0-5.33-4.98-5.83-7.39-5.83Zm0,0h-2.77v11.91h3.06c4.43,0,7.09-2.21,7.09-6.08,0-5.33-4.98-5.83-7.39-5.83Zm0,0h-2.77v11.91h3.06c4.43,0,7.09-2.21,7.09-6.08,0-5.33-4.98-5.83-7.39-5.83Zm0,0h-2.77v11.91h3.06c4.43,0,7.09-2.21,7.09-6.08,0-5.33-4.98-5.83-7.39-5.83Zm0,0h-2.77v11.91h3.06c4.43,0,7.09-2.21,7.09-6.08,0-5.33-4.98-5.83-7.39-5.83Zm0,0h-2.77v11.91h3.06c4.43,0,7.09-2.21,7.09-6.08,0-5.33-4.98-5.83-7.39-5.83Zm0,0h-2.77v11.91h3.06c4.43,0,7.09-2.21,7.09-6.08,0-5.33-4.98-5.83-7.39-5.83Zm49.01,11.87c-3.83,0-7.34,2.71-7.34,7.79s3.62,7.74,7.34,7.74,7.34-2.66,7.34-7.74-3.52-7.79-7.34-7.79Zm0,0c-3.83,0-7.34,2.71-7.34,7.79s3.62,7.74,7.34,7.74,7.34-2.66,7.34-7.74-3.52-7.79-7.34-7.79Zm-49.01-11.87h-2.77v11.91h3.06c4.43,0,7.09-2.21,7.09-6.08,0-5.33-4.98-5.83-7.39-5.83Zm0,0h-2.77v11.91h3.06c4.43,0,7.09-2.21,7.09-6.08,0-5.33-4.98-5.83-7.39-5.83Zm49.01,11.87c-3.83,0-7.34,2.71-7.34,7.79s3.62,7.74,7.34,7.74,7.34-2.66,7.34-7.74-3.52-7.79-7.34-7.79Zm45.89,0c-3.07,0-5.58,2.31-6.14,5.42h12.27c-.6-3.26-3.06-5.42-6.13-5.42Zm0,0c-3.07,0-5.58,2.31-6.14,5.42h12.27c-.6-3.26-3.06-5.42-6.13-5.42Zm-45.89,0c-3.83,0-7.34,2.71-7.34,7.79s3.62,7.74,7.34,7.74,7.34-2.66,7.34-7.74-3.52-7.79-7.34-7.79Zm-49.01-11.87h-2.77v11.91h3.06c4.43,0,7.09-2.21,7.09-6.08,0-5.33-4.98-5.83-7.39-5.83Zm0,0h-2.77v11.91h3.06c4.43,0,7.09-2.21,7.09-6.08,0-5.33-4.98-5.83-7.39-5.83Zm49.01,11.87c-3.83,0-7.34,2.71-7.34,7.79s3.62,7.74,7.34,7.74,7.34-2.66,7.34-7.74-3.52-7.79-7.34-7.79Zm45.89,0c-3.07,0-5.58,2.31-6.14,5.42h12.27c-.6-3.26-3.06-5.42-6.13-5.42Zm0,0c-3.07,0-5.58,2.31-6.14,5.42h12.27c-.6-3.26-3.06-5.42-6.13-5.42Zm-45.89,0c-3.83,0-7.34,2.71-7.34,7.79s3.62,7.74,7.34,7.74,7.34-2.66,7.34-7.74-3.52-7.79-7.34-7.79Zm-49.01-11.87h-2.77v11.91h3.06c4.43,0,7.09-2.21,7.09-6.08,0-5.33-4.98-5.83-7.39-5.83Zm0,0h-2.77v11.91h3.06c4.43,0,7.09-2.21,7.09-6.08,0-5.33-4.98-5.83-7.39-5.83Zm49.01,11.87c-3.83,0-7.34,2.71-7.34,7.79s3.62,7.74,7.34,7.74,7.34-2.66,7.34-7.74-3.52-7.79-7.34-7.79Zm45.89,0c-3.07,0-5.58,2.31-6.14,5.42h12.27c-.6-3.26-3.06-5.42-6.13-5.42Zm0,0c-3.07,0-5.58,2.31-6.14,5.42h12.27c-.6-3.26-3.06-5.42-6.13-5.42Zm-45.89,0c-3.83,0-7.34,2.71-7.34,7.79s3.62,7.74,7.34,7.74,7.34-2.66,7.34-7.74-3.52-7.79-7.34-7.79Zm-49.01-11.87h-2.77v11.91h3.06c4.43,0,7.09-2.21,7.09-6.08,0-5.33-4.98-5.83-7.39-5.83ZM197.32,0C88.34,0,0,88.35,0,197.33s88.34,197.32,197.32,197.32,197.33-88.34,197.33-197.32S306.3,0,197.32,0Zm-.3,139.71c0-9.48,7.69-17.17,17.17-17.17h4.77c9.48,0,17.17,7.69,17.17,17.17v115.23c0,9.48-7.69,17.17-17.17,17.17h-4.77c-9.48,0-17.17-7.69-17.17-17.17v-115.23Zm-67.13-54.78c4.08,0,6.64,2.01,7.89,3.82,1.31,1.86,2.06,5.08,1.96,7.85h-16.23c.05,4.32,3.01,7.09,6.63,7.09,1.71,0,3.06-.5,4.27-1.51.96-.8,1.71-1.86,2.16-2.86l3.02,1.66c-.6,1.15-1.51,2.41-2.56,3.36-1.91,1.71-4.27,2.56-6.94,2.56-5.03,0-10.31-3.17-10.31-10.9,0-6.24,3.82-11.06,10.1-11.06Zm-36.95-15.29h3.62v18.2c.66-.85,2.52-2.92,5.98-2.92,2.47,0,4.73,1,5.99,2.86,1.05,1.56,1.2,3.27,1.2,5.58v12.92h-3.61v-12.82c0-1.25-.1-2.71-.96-3.82-.71-.91-1.81-1.51-3.42-1.51-1.26,0-2.62.35-3.67,1.61-1.41,1.66-1.51,4.12-1.51,5.64v10.9h-3.62v-36.65Zm-25.53,3.12h20v3.52h-8.14v30.01h-3.72v-30.01h-8.14v-3.52Zm86.78,200.1c-9.48,0-17.17-7.42-17.17-16.55v-13.54c0-34.22.43-51.74.43-51.95h-.64c-.21.2-6.4,14.63-11.33,25.56l-5.38,12.19c-.02.05-.05.11-.08.16-5.31,11.7-22.23,11.7-27.55,0-.02-.05-.05-.11-.07-.16l-5.38-12.19c-4.92-10.93-11.12-25.36-11.33-25.56h-.64c0,.2.43,17.72.43,51.95v13.54c0,9.14-7.69,16.55-17.17,16.55h-4.77c-9.48,0-17.17-7.42-17.17-16.55v-114.4c0-11.11,7.79-20.45,24.47-20.11,9.47,0,15.85,5.01,21.24,14.52.6,1.07,1.19,2.19,1.76,3.36.03.05.05.1.08.15l22.32,46.04,22.32-46.04s.05-.1.08-.15c.57-1.18,1.16-2.3,1.76-3.36,5.39-9.51,11.77-14.52,21.24-14.52,16.68-.35,24.47,9,24.47,20.11v114.4c0,9.14-7.69,16.55-17.17,16.55h-4.77Zm19.71,33.15h-3.27v14.58h-3.72v-33.53h6.08c3.36,0,6.18.41,8.44,2.37,2.46,2.11,3.06,5.08,3.06,7.19,0,4.73-2.96,9.4-10.61,9.4Zm29.91-2.67c-.81-.55-1.56-.71-2.11-.71-1.46,0-2.37.6-2.92,1.31-.6.81-1.21,2.21-1.21,5.63v11.01h-3.62v-20.87h3.62v2.27c.35-.55,1.9-2.77,4.72-2.77,1.11,0,2.31.41,3.22.85l-1.71,3.27Zm18.6,17.85c-6.33,0-11.06-4.62-11.06-10.96s4.67-11.01,11.06-11.01,11.06,4.68,11.06,11.01-4.73,10.96-11.06,10.96Zm10,10.96h3.65c0,4.65,7.96,4.65,7.96,0v-32.43h3.62v32.43h.02c0,9.06-15.25,9.06-15.25,0Zm13.42-37.75c-1.4,0-2.56-1.16-2.56-2.56s1.16-2.56,2.56-2.56,2.56,1.15,2.56,2.56-1.15,2.56-2.56,2.56Zm22.72,23.57c1.71,0,3.07-.5,4.27-1.51.96-.81,1.71-1.86,2.16-2.86l3.01,1.65c-.6,1.16-1.5,2.41-2.56,3.37-1.9,1.71-4.27,2.56-6.94,2.56-5.02,0-10.3-3.17-10.3-10.91,0-6.23,3.82-11.06,10.1-11.06,4.07,0,6.63,2.01,7.89,3.83,1.3,1.86,2.06,5.08,1.96,7.84h-16.24c.05,4.33,3.02,7.09,6.64,7.09Zm36.65,1.06c-2.27,1.66-4.68,2.16-6.64,2.16-6.48,0-11.15-4.62-11.15-10.91s4.72-11.06,11.15-11.06c3.32,0,5.48,1.31,6.49,2.01v4.32c-1.91-2.41-4.68-3.11-6.54-3.11-3.87,0-7.39,2.71-7.39,7.79s3.62,7.74,7.34,7.74c2.16,0,4.83-.95,6.74-3.26v4.32Zm17.9-15.98h-3.62v17.54h-3.62v-17.54h-2.21v-3.32h2.21v-7.53h3.62v7.53h3.62v3.32Zm-13.26-27.95c-18.14,0-36.39-4.45-48.25-17.68-8.53-9.51-3.97-24.68,8.36-28l4.77-1.28c6.41-1.72,13.11.52,17.53,5.46,3.65,4.09,9.16,6.45,16.95,6.45,9.62,0,15.6-3.21,15.6-10.68,0-10.68-13.25-11.11-29.91-16.66-18.16-5.98-41.45-16.24-41.45-48.07,0-29.06,20.3-45.08,53.84-45.08,19.33,0,35.7,5.24,46.33,17.6,8.19,9.52,3.43,24.37-8.69,27.62l-4.54,1.22c-6.45,1.73-13.3-.45-17.6-5.56-3.53-4.19-8.69-6.06-15.72-6.06-9.83,0-13.68,3.63-13.68,9.83,0,10.04,11.11,11.96,30.13,17.52,19.87,5.77,41.02,15.81,41.02,47.22s-20.08,46.15-54.7,46.15Zm-41.53,27.35c-3.07,0-5.58,2.31-6.14,5.42h12.27c-.6-3.26-3.06-5.42-6.13-5.42Zm-45.89,0c-3.83,0-7.34,2.71-7.34,7.79s3.62,7.74,7.34,7.74,7.34-2.66,7.34-7.74-3.52-7.79-7.34-7.79Zm-49.01-11.87h-2.77v11.91h3.06c4.43,0,7.09-2.21,7.09-6.08,0-5.33-4.98-5.83-7.39-5.83Zm-43.5-202.44c-3.07,0-5.58,2.31-6.13,5.43h12.26c-.6-3.27-3.07-5.43-6.13-5.43Zm43.5,202.44h-2.77v11.91h3.06c4.43,0,7.09-2.21,7.09-6.08,0-5.33-4.98-5.83-7.39-5.83Zm49.01,11.87c-3.83,0-7.34,2.71-7.34,7.79s3.62,7.74,7.34,7.74,7.34-2.66,7.34-7.74-3.52-7.79-7.34-7.79Zm45.89,0c-3.07,0-5.58,2.31-6.14,5.42h12.27c-.6-3.26-3.06-5.42-6.13-5.42Zm0,0c-3.07,0-5.58,2.31-6.14,5.42h12.27c-.6-3.26-3.06-5.42-6.13-5.42Zm-45.89,0c-3.83,0-7.34,2.71-7.34,7.79s3.62,7.74,7.34,7.74,7.34-2.66,7.34-7.74-3.52-7.79-7.34-7.79Zm-49.01-11.87h-2.77v11.91h3.06c4.43,0,7.09-2.21,7.09-6.08,0-5.33-4.98-5.83-7.39-5.83Zm0,0h-2.77v11.91h3.06c4.43,0,7.09-2.21,7.09-6.08,0-5.33-4.98-5.83-7.39-5.83Zm49.01,11.87c-3.83,0-7.34,2.71-7.34,7.79s3.62,7.74,7.34,7.74,7.34-2.66,7.34-7.74-3.52-7.79-7.34-7.79Zm45.89,0c-3.07,0-5.58,2.31-6.14,5.42h12.27c-.6-3.26-3.06-5.42-6.13-5.42Zm0,0c-3.07,0-5.58,2.31-6.14,5.42h12.27c-.6-3.26-3.06-5.42-6.13-5.42Zm-45.89,0c-3.83,0-7.34,2.71-7.34,7.79s3.62,7.74,7.34,7.74,7.34-2.66,7.34-7.74-3.52-7.79-7.34-7.79Zm-49.01-11.87h-2.77v11.91h3.06c4.43,0,7.09-2.21,7.09-6.08,0-5.33-4.98-5.83-7.39-5.83Zm0,0h-2.77v11.91h3.06c4.43,0,7.09-2.21,7.09-6.08,0-5.33-4.98-5.83-7.39-5.83Zm49.01,11.87c-3.83,0-7.34,2.71-7.34,7.79s3.62,7.74,7.34,7.74,7.34-2.66,7.34-7.74-3.52-7.79-7.34-7.79Zm0,0c-3.83,0-7.34,2.71-7.34,7.79s3.62,7.74,7.34,7.74,7.34-2.66,7.34-7.74-3.52-7.79-7.34-7.79Zm-49.01-11.87h-2.77v11.91h3.06c4.43,0,7.09-2.21,7.09-6.08,0-5.33-4.98-5.83-7.39-5.83Zm0,0h-2.77v11.91h3.06c4.43,0,7.09-2.21,7.09-6.08,0-5.33-4.98-5.83-7.39-5.83Zm49.01,11.87c-3.83,0-7.34,2.71-7.34,7.79s3.62,7.74,7.34,7.74,7.34-2.66,7.34-7.74-3.52-7.79-7.34-7.79Zm0,0c-3.83,0-7.34,2.71-7.34,7.79s3.62,7.74,7.34,7.74,7.34-2.66,7.34-7.74-3.52-7.79-7.34-7.79Zm-49.01-11.87h-2.77v11.91h3.06c4.43,0,7.09-2.21,7.09-6.08,0-5.33-4.98-5.83-7.39-5.83Zm0,0h-2.77v11.91h3.06c4.43,0,7.09-2.21,7.09-6.08,0-5.33-4.98-5.83-7.39-5.83Zm0,0h-2.77v11.91h3.06c4.43,0,7.09-2.21,7.09-6.08,0-5.33-4.98-5.83-7.39-5.83Zm0,0h-2.77v11.91h3.06c4.43,0,7.09-2.21,7.09-6.08,0-5.33-4.98-5.83-7.39-5.83Zm0,0h-2.77v11.91h3.06c4.43,0,7.09-2.21,7.09-6.08,0-5.33-4.98-5.83-7.39-5.83Zm0,0h-2.77v11.91h3.06c4.43,0,7.09-2.21,7.09-6.08,0-5.33-4.98-5.83-7.39-5.83Zm0,0h-2.77v11.91h3.06c4.43,0,7.09-2.21,7.09-6.08,0-5.33-4.98-5.83-7.39-5.83Z"/>
      <path class="cls-1" d="m129.41,138.11l-.76,1.58c.57-1.18,1.16-2.3,1.76-3.36-.37.57-.71,1.16-1,1.79Z"/>
      <g>
        <path class="cls-1" d="m502.53,169.9l-44.85,7.09-3.73-23.58,62.68-9.91-7.31-46.29-112.14,17.73,25.46,161.01,49.45-7.82-7.5-47.44,44.85-7.09-6.91-43.7Z"/>
        <path class="cls-1" d="m569.11,87.76l-49.45,7.82,25.46,161.01,49.45-7.82-25.46-161.01Z"/>
        <path class="cls-1" d="m721.92,111.05l-7.32-46.29-136.86,21.64,7.32,46.29,43.7-6.91,18.14,114.72,49.45-7.82-18.14-114.73,43.71-6.91Z"/>
      </g>
    </g>
  </g>
</svg>