<?xml version="1.0" encoding="UTF-8"?>
<svg id="Layer_2" data-name="Layer 2" xmlns="http://www.w3.org/2000/svg" xmlns:xlink="http://www.w3.org/1999/xlink" viewBox="0 0 1367.64 1961.35">
  <defs>
    <style>
      .cls-1 {
        fill: #c2a12e;
      }

      .cls-2 {
        fill: #72a153;
      }

      .cls-3 {
        fill: #e47752;
      }

      .cls-4 {
        clip-path: url(#clippath);
        fill: none;
      }

      .cls-5 {
        fill: #588485;
      }

      .cls-6 {
        fill: #55455c;
      }
    </style>
    <clipPath id="clippath">
      <rect class="cls-1" width="1367.64" height="1961.35"/>
    </clipPath>
  </defs>
  <g id="Layer_1-2" data-name="Layer 1">
    <g>
      <rect class="cls-1" width="1367.64" height="1961.35"/>
      <g class="cls-4">
        <path class="cls-3" d="m-110.31,2008.12c7.8-6.07,18.52-6.31,28.41-6.11,291.46,5.81,561.54,156.48,851,191.05,89.78,10.72,180.48,10.14,270.9,9.54,166.71-1.1,333.42-2.21,500.12-3.31-26.73-125.84-40.97-254.32-42.46-382.96-.47-40.57-1.07-85.15-27.69-115.77-223.44,21.61-438.5-79.14-640.37-177.34-70.58-34.34-141.17-68.67-211.75-103.01-59.56-28.97-119.49-58.09-183.12-76.47-56.57-16.34-115.64-23.99-174.51-22.59-73.72,1.75-147.76,17.54-220.65,6.42-34.23-5.22-80.76-9.83-92.26,22.83-2.42,6.89-2.53,14.34-2.6,21.64-1.96,203.34,1.54,406.73,10.48,609.88"/>
        <path class="cls-1" d="m-60.06,1062.25c62.59-55.76,148.66-78.07,232.33-83.35,83.66-5.28,167.53,4.58,251.36,4.14,70.2-.36,140.92-7.9,210.28,2.95,113.31,17.73,212.62,82.54,312.6,138.72,108.83,61.16,222.44,113.59,338.44,159.7,60.2,23.93,123.78,46.55,188.2,39.74,12.77-1.35,28.62-2.5,35.39,8.41,2.71,4.36,3.15,9.72,3.51,14.84,12.46,174.32,24.93,348.65,37.39,522.97-194.54-1.34-381.02-75.5-555.77-160.98-174.76-85.48-344.8-184.03-531.06-240.17-160.72-48.44-331.26-64.04-498.1-45.54,17.49-51.85,1.71-108.12-6.54-162.21-12.81-84-6.78-170.82,17.51-252.25"/>
        <path class="cls-2" d="m-112.87,767.26c-6.03,132.07,6.25,264.97,36.39,393.7,71.53-68.12,176.64-83.93,274.61-96.47,54.4-6.96,109.04-13.94,163.87-12.8,150.65,3.13,293.48,67.2,423.3,143.7,129.82,76.5,251.96,166.77,388.32,230.91,136.36,64.13,292.7,100.96,438.4,62.53,12.31-178.4,17.37-357.29,15.19-536.1-42.18,11.22-85.14,22.54-128.75,20.82-55.13-2.16-107.2-24.95-156.62-49.48-178.69-88.7-342.38-204.75-500.49-326.41-112.04-86.21-234.23-180-375.58-177.99-53.97.77-106.71,15.85-160.48,20.56-72.95,6.39-146.07-6.38-218.18-19.1-44.86-7.91-89.73-15.83-134.59-23.74-5.69-1-12.08-1.86-16.79,1.48-5.4,3.83-6.21,11.4-6.52,18.02-3.09,65.87-6.17,131.75-9.26,197.62-1.5,32.04-2.71,64.11-4.5,96.14-1.08,19.28-2.95,18.85-11.77,30.06-7.4,9.41-15.87,11.66-16.55,26.56Z"/>
        <path class="cls-5" d="m-51.8,262.35c-11.54,59.48-14.6,123.13,9.4,178.76,27.47,63.67,87.48,108.72,152.16,133.72,64.68,25,134.57,32.54,203.49,40.21,161.46,17.97,326.76,39.1,470.71,114.4,173.73,90.89,300.18,252.21,465.4,357.78,84.8,54.19,178.43,92.79,271.5,131.1,6.51,2.68,15.37,4.77,19.46-.96,1.58-2.21,1.91-5.04,2.19-7.75,25.62-248.1,37.7-497.6,36.16-747.02-.06-10.07-.61-21.29-7.84-28.31-7.8-7.58-20.08-7.15-30.95-6.82-93.1,2.8-182.59-38.09-259-91.35-76.42-53.26-143.14-119.15-217.05-175.83-68.43-52.48-148.98-98.59-235.1-94.03-38.36,2.03-75.44,14.07-113.43,19.79-138.23,20.8-285.75-51.74-353.68-173.91-13.54-24.36-26.54-52.63-52.59-62.53-13.54-5.14-28.51-4.29-42.96-3.37-93.52,5.98-187.04,11.95-280.56,17.93-9.09.58-19.01,1.52-25.52,7.89-7.13,6.98-7.74,18.06-7.9,28.04-2.21,140.23-2.93,280.49-2.16,420.73"/>
        <path class="cls-6" d="m200.53-185.33c-25.51,47.49-18.98,105.49-6.4,157.91,10.99,45.77,26.73,91.78,57.18,127.69,24.8,29.26,58,50.17,92.13,67.68,117.08,60.09,251.96,84.95,382.77,70.56,58.66-6.45,117.02-20.61,175.91-16.81,105.94,6.82,199.85,70.82,276.51,144.25,76.66,73.43,142.34,158.55,225.59,224.42,5.78,4.57,11.98,9.55,13.88,16.67,1.9,7.12-3.45,16.37-10.72,15.2,42.72-252.5,38.41-512.87-12.64-763.82-167.23,54.11-345.93,63.5-521.5,55.34-175.58-8.16-349.91-33.37-525.17-46.73-39.74-3.03-83.18-7.01-111.65-34.9"/>
      </g>
    </g>
  </g>
</svg>